<?xml version="1.0" standalone="no"?><!DOCTYPE svg PUBLIC "-//W3C//DTD SVG 1.1//EN" "http://www.w3.org/Graphics/SVG/1.1/DTD/svg11.dtd"><svg t="1657613803686" class="icon" viewBox="0 0 1083 1024" version="1.1" xmlns="http://www.w3.org/2000/svg" p-id="2411" xmlns:xlink="http://www.w3.org/1999/xlink" width="211.5234375" height="200"><defs><style type="text/css"></style></defs><path d="M1081.123967 479.485884l-161.741223-85.432066 161.555041-105.446611L540.570446 0.69395 0.186182 288.598744l161.555041 105.446611L0 479.494347l161.741223 105.573554L0 670.491504l540.561983 352.814546 540.570447-352.814546-161.749686-85.432066 161.749686-105.573554zM956.162116 294.167273l-107.223802 69.987438-93.810248-58.42724 100.241984-65.248264 100.792066 53.688066zM482.320926 407.484298l-91.982281 59.882842-104.752662-68.379504 94.648067-57.953322 102.086876 66.449984z m-42.060166-103.21243l96.966876-59.383537 99.581885 62.023933-96.247538 62.658645-100.301223-65.299041zM540.561983 445.397686l92.049984 59.925157-92.049984 60.08595-92.049983-60.08595 92.049983-59.925157z m58.249521-37.921851l97.533884-63.496463 93.886414 58.478016-99.438017 64.892827-91.990744-59.87438z m192.495075-201.152529l-95.714381 62.311669-97.745454-60.881454 91.246016-55.888397 102.213819 54.458182zM540.561983 72.737851l83.451769 44.455141-86.506843 52.97719-82.910149-51.631603 85.965223-45.800728zM389.797025 153.066843l87.082314 54.238149-95.612827 58.562644-91.440661-59.535867 99.971174-53.264926zM124.970314 294.15881l100.792066-53.696529 95.477422 62.159339-94.571901 57.911008-101.697587-66.373818z m0.186182 191.132562l97.483107-51.496198 317.92238 207.508099 317.930843-207.508099 97.474645 51.496198L540.561983 756.40595 125.164959 485.291372z m830.810975 191.00562L540.561983 947.41157 125.164959 676.288529l97.483107-51.487736 317.92238 207.5081 317.930843-207.5081 97.474645 51.487736z" fill="#ffffff" p-id="2412"></path></svg>