<?xml version="1.0" standalone="no"?><!DOCTYPE svg PUBLIC "-//W3C//DTD SVG 1.1//EN" "http://www.w3.org/Graphics/SVG/1.1/DTD/svg11.dtd"><svg t="1650457109173" class="icon" viewBox="0 0 1024 1024" version="1.1" xmlns="http://www.w3.org/2000/svg" p-id="4247" xmlns:xlink="http://www.w3.org/1999/xlink" width="200" height="200"><defs><style type="text/css"></style></defs><path d="M341.333333 213.333333h85.333334v554.666667H341.333333V213.333333z m256 42.666667h85.333334v554.666667h-85.333334V256z" p-id="4248" fill="#ffffff"></path><path d="M640 896h-17.066667L384 814.933333 183.466667 896c-12.8 4.266667-29.866667 4.266667-38.4-4.266667-8.533333-12.8-17.066667-25.6-17.066667-38.4V256v-8.533333c0-4.266667 4.266667-12.8 8.533333-17.066667l12.8-12.8c4.266667 0 4.266667-4.266667 8.533334-4.266667l213.333333-85.333333h29.866667L640 209.066667 840.533333 128c12.8-4.266667 29.866667-4.266667 38.4 4.266667 8.533333 12.8 17.066667 25.6 17.066667 38.4v597.333333c0 17.066667-8.533333 34.133333-25.6 38.4l-213.333333 85.333333h-4.266667c-4.266667 4.266667-8.533333 4.266667-12.8 4.266667z m-243.2-166.4l238.933333 81.066667 170.666667-68.266667V234.666667l-153.6 59.733333H640h-17.066667L384 217.6 213.333333 285.866667v503.466666L366.933333 725.333333h21.333334c4.266667 0 8.533333 0 8.533333 4.266667z" p-id="4249" fill="#ffffff"></path></svg>